<svg width="70" height="70" viewBox="0 0 70 70" fill="none" xmlns="http://www.w3.org/2000/svg">
<g id="clarity:picture-line" clip-path="url(#clip0_8_485)">
<path id="Vector" d="M62.222 7.77777H7.77756C6.74616 7.77777 5.75701 8.18749 5.0277 8.9168C4.29839 9.64611 3.88867 10.6353 3.88867 11.6667V58.3333C3.88867 59.3647 4.29839 60.3539 5.0277 61.0832C5.75701 61.8125 6.74616 62.2222 7.77756 62.2222H62.222C63.2534 62.2222 64.2426 61.8125 64.9719 61.0832C65.7012 60.3539 66.1109 59.3647 66.1109 58.3333V11.6667C66.1109 10.6353 65.7012 9.64611 64.9719 8.9168C64.2426 8.18749 63.2534 7.77777 62.222 7.77777ZM7.77756 58.3333V11.6667H62.222V58.3333H7.77756Z" fill="#CFCECE"/>
<path id="Vector_2" d="M17.3446 27.2222C18.4983 27.2222 19.6261 26.8801 20.5854 26.2391C21.5447 25.5981 22.2924 24.6871 22.7339 23.6212C23.1754 22.5553 23.2909 21.3824 23.0658 20.2509C22.8407 19.1193 22.2852 18.0799 21.4694 17.2641C20.6535 16.4483 19.6141 15.8927 18.4826 15.6676C17.351 15.4426 16.1781 15.5581 15.1122 15.9996C14.0463 16.4411 13.1353 17.1888 12.4943 18.1481C11.8533 19.1073 11.5112 20.2352 11.5112 21.3889C11.5112 22.936 12.1258 24.4197 13.2198 25.5137C14.3137 26.6076 15.7975 27.2222 17.3446 27.2222ZM17.3446 18.2778C17.9607 18.2739 18.5641 18.4531 19.0783 18.7926C19.5924 19.1321 19.9942 19.6166 20.2327 20.1848C20.4711 20.7529 20.5355 21.379 20.4177 21.9838C20.2999 22.5886 20.0051 23.1448 19.5708 23.5818C19.1365 24.0188 18.5822 24.3171 17.9781 24.4387C17.3741 24.5603 16.7476 24.4999 16.178 24.265C15.6084 24.0301 15.1213 23.6314 14.7786 23.1193C14.4359 22.6073 14.2529 22.005 14.2529 21.3889C14.258 20.5705 14.5854 19.7871 15.1641 19.2084C15.7428 18.6297 16.5262 18.3023 17.3446 18.2972V18.2778Z" fill="#CFCECE"/>
<path id="Vector_3" d="M44.2946 29.8861L33.7946 40.3861L26.0168 32.6083C25.6525 32.2462 25.1596 32.0429 24.646 32.0429C24.1323 32.0429 23.6394 32.2462 23.2751 32.6083L11.5112 44.5278V50.0306L24.714 36.8278L31.1112 43.1278L23.8196 50.4194H29.1668L45.5973 33.9889L58.3335 46.6667V41.1833L47.0362 29.8861C46.6719 29.524 46.1791 29.3207 45.6654 29.3207C45.1517 29.3207 44.6589 29.524 44.2946 29.8861Z" fill="#CFCECE"/>
</g>
<defs>
<clipPath id="clip0_8_485">
<rect width="70" height="70" fill="white"/>
</clipPath>
</defs>
</svg>
