<svg width="36" height="35" viewBox="0 0 36 35" fill="none" xmlns="http://www.w3.org/2000/svg">
<g id="icon-park-outline:people">
<path id="Vector" d="M18 14.5833C18.6894 14.5833 19.3721 14.4513 20.0091 14.1948C20.646 13.9383 21.2248 13.5623 21.7123 13.0884C22.1998 12.6144 22.5865 12.0517 22.8504 11.4324C23.1142 10.8132 23.25 10.1495 23.25 9.47917C23.25 8.80888 23.1142 8.14515 22.8504 7.52589C22.5865 6.90662 22.1998 6.34394 21.7123 5.86998C21.2248 5.39601 20.646 5.02004 20.0091 4.76353C19.3721 4.50702 18.6894 4.375 18 4.375C16.6076 4.375 15.2723 4.91276 14.2877 5.86998C13.3031 6.82719 12.75 8.12546 12.75 9.47917C12.75 10.8329 13.3031 12.1311 14.2877 13.0884C15.2723 14.0456 16.6076 14.5833 18 14.5833ZM4.5 29.75V30.625H31.5V29.75C31.5 26.4833 31.5 24.85 30.846 23.6017C30.2708 22.5041 29.3529 21.6118 28.224 21.0525C26.94 20.4167 25.26 20.4167 21.9 20.4167H14.1C10.74 20.4167 9.06 20.4167 7.776 21.0525C6.64708 21.6118 5.72923 22.5041 5.154 23.6017C4.5 24.85 4.5 26.4833 4.5 29.75Z" stroke="white" stroke-width="4" stroke-linecap="round" stroke-linejoin="round"/>
</g>
</svg>
